<?xml version="1.0" encoding="UTF-8"?>
<svg id="Layer_1" data-name="Layer 1" xmlns="http://www.w3.org/2000/svg" viewBox="0 0 496 255.58">
  <defs>
    <style>
      .cls-1 {
        fill: #231f20;
      }
    </style>
  </defs>
  <path class="cls-1" d="m398.88,109.31c-2.77,0-5.27.28-7.47.82-2.15.54-4.04,1.33-5.65,2.38-1.54,1.01-2.67,2.13-3.39,3.39-.71,1.23-1.06,2.63-1.06,4.24,0,1.13.14,2.2.41,3.19.28,1,.69,1.95,1.24,2.83.55.89,1.22,1.7,1.99,2.42.78.73,1.66,1.36,2.64,1.9.98.53,2.02.94,3.12,1.21,1.09.27,2.25.4,3.47.4,2.14,0,4.18-.2,6.1-.59,1.92-.39,3.76-.98,5.5-1.76,1.7-.77,3.19-1.66,4.44-2.68,1.31-1.11,2.8-2.8,3.64-4.29.25-.46.42-.94.52-1.46.03-.18.05-.37.05-.57v-8.97c-.88-.31-1.77-.6-2.67-.84-1.29-.36-2.62-.66-3.99-.89-1.4-.24-2.85-.42-4.34-.55-1.47-.12-2.99-.18-4.53-.18m-4.7,29.34c-1.77,0-3.48-.2-5.12-.61-3.21-.79-6.21-2.43-8.61-4.71-2.37-2.25-4.15-5.13-5.03-8.28-.44-1.58-.66-3.22-.66-4.91s.28-3.42.84-4.98c.55-1.55,1.39-3,2.5-4.33,1.07-1.28,2.33-2.42,3.78-3.42,3.14-2.17,6.83-3.49,10.57-4.13,2.03-.35,4.19-.52,6.44-.52,1.55,0,3.13.07,4.75.2,1.56.13,3.18.33,4.86.6,1.53.25,2.98.54,4.36.88.54.13,1.06.27,1.57.42v-2.91c0-2.49-.35-4.73-1.06-6.71-.69-1.94-1.72-3.64-3.08-5.09-1.35-1.44-2.94-2.52-4.75-3.25-1.83-.73-3.91-1.1-6.24-1.1-1.13,0-2.3.13-3.51.37-1.25.26-2.56.64-3.93,1.16-1.39.53-2.79,1.17-4.18,1.93-1.4.76-2.82,1.65-4.26,2.66h0l-1.78,1.25-3.95-5.26,1.95-1.33c1.78-1.21,3.52-2.27,5.18-3.16,1.7-.91,3.37-1.68,4.99-2.3,1.66-.63,3.28-1.1,4.84-1.41,1.6-.32,3.15-.48,4.65-.48,3.24,0,6.18.52,8.82,1.55,2.67,1.04,5,2.6,6.97,4.68,1.97,2.06,3.45,4.49,4.43,7.28.97,2.74,1.46,5.82,1.46,9.2v27.32c-.07,1.89,1.33,1.81,2.78,1.81v6.56c-2.37,0-5.38.35-7.27-1.37-.91-.83-1.53-1.97-1.84-3.15-.11-.42-.18-.84-.21-1.26-.39.32-.79.62-1.2.92-1.59,1.15-3.35,2.16-5.26,3.02-2.11.95-4.34,1.66-6.65,2.14-2.32.48-4.71.72-7.15.72Z"/>
  <path class="cls-1" d="m436.82,137.63h-4.75v-57.57h6.56v8.5c1.14-1.31,2.4-2.5,3.77-3.57,1.71-1.33,3.48-2.39,5.29-3.17,1.84-.79,3.75-1.31,5.7-1.54h0s1.06-.1,1.06-.1l.95-.07c.25-.01.54-.03.86-.04l2.44-.02v6.46l-1.6.09c-2.22.09-4.31.51-6.26,1.26-1.94.74-3.74,1.8-5.36,3.17h0c-1.64,1.39-3.04,3.03-4.19,4.9-1.13,1.84-2.02,3.91-2.67,6.19v35.51h-1.8Z"/>
  <path class="cls-1" d="m483.08,138.65c-.96,0-1.92-.11-2.86-.32-.93-.21-1.82-.53-2.68-.95h0c-.87-.43-1.66-.95-2.36-1.55-.71-.61-1.34-1.31-1.87-2.09-.56-.81-.98-1.7-1.26-2.64-.28-.94-.42-1.93-.42-2.97v-41.52h-7.67v-6.56h7.67v-18.5h6.56v18.5h12.78v6.56h-12.78v41.51c.05.64.2,1.19.43,1.64.51.99,1.63,1.7,2.65,2.04.56.19,1.17.28,1.82.28,1.06,0,2.01-.09,2.84-.25,2.58-.52,4.29-1.6,6.3-3.28l3.77,5.57-2.05,1.23c-1.63.98-3.35,1.85-5.15,2.45-.85.28-1.76.49-2.71.63-.96.14-1.97.21-3.01.21"/>
  <path class="cls-1" d="m292.39,190.64h27.19c1.27,0,2.45-.17,3.54-.51,1.09-.34,2.1-.84,3.01-1.5h0c.98-.72,1.86-1.53,2.63-2.43.78-.91,1.45-1.92,2.01-3.01.56-1.09.98-2.21,1.27-3.35.28-1.11.42-2.25.42-3.39,0-1.31-.13-2.55-.4-3.73-.27-1.18-.67-2.32-1.2-3.4-.53-1.07-1.16-2.04-1.9-2.91-.73-.86-1.56-1.62-2.49-2.28h0c-.89-.63-1.86-1.1-2.9-1.41-1.03-.31-2.16-.47-3.38-.47h-27.8v28.41Zm0,35.58h29.33c1.28,0,2.49-.17,3.63-.52,1.14-.34,2.22-.86,3.23-1.55,1.06-.72,2.02-1.54,2.86-2.46.84-.92,1.58-1.94,2.21-3.07.62-1.11,1.09-2.24,1.4-3.4.31-1.14.46-2.32.46-3.52,0-1.29-.15-2.53-.43-3.71-.29-1.18-.72-2.32-1.3-3.42-.58-1.1-1.27-2.1-2.06-2.99-.79-.89-1.69-1.69-2.7-2.39-.97-.67-2-1.17-3.09-1.5-1.09-.33-2.26-.5-3.51-.5h-30.05v29.02Zm29.33,6.56h-35.89v-77.1h34.36c1.91,0,3.73.26,5.43.79,1.72.53,3.3,1.31,4.73,2.35,1.38,1.01,2.62,2.17,3.71,3.49,1.08,1.31,1.99,2.76,2.73,4.33h0c.73,1.57,1.28,3.17,1.65,4.8.37,1.66.56,3.33.56,5.01,0,2.02-.27,3.99-.79,5.89-.53,1.89-1.31,3.7-2.35,5.4-.93,1.53-2.03,2.89-3.29,4.08-.42.39-.85.77-1.3,1.12.85.47,1.65.99,2.41,1.56,1.66,1.25,3.11,2.76,4.35,4.52,1.33,1.89,2.34,3.92,3.02,6.05.68,2.14,1.02,4.36,1.02,6.65,0,1.85-.23,3.65-.69,5.41-.46,1.75-1.15,3.43-2.06,5.02h0c-.9,1.58-1.97,3.02-3.19,4.3-1.21,1.28-2.58,2.41-4.1,3.38-1.55.99-3.19,1.73-4.91,2.22-1.72.49-3.53.74-5.4.74Z"/>
  <polygon class="cls-1" points="356.84 232.78 352.08 232.78 352.08 175.2 358.64 175.2 358.64 232.78 356.84 232.78"/>
  <polygon class="cls-1" points="356.84 166.02 352.08 166.02 352.08 153.63 358.64 153.63 358.64 166.02 356.84 166.02"/>
  <path class="cls-1" d="m395.54,180.94c-1.59,0-3.11.17-4.53.5-1.41.33-2.75.83-3.98,1.48-1.27.68-2.44,1.46-3.5,2.35-1.05.89-2.01,1.89-2.87,3.01-.88,1.15-1.66,2.36-2.33,3.61-.67,1.25-1.24,2.58-1.72,3.97-.47,1.38-.82,2.76-1.06,4.15-.23,1.37-.35,2.75-.35,4.12,0,1.54.14,3.04.41,4.48.27,1.45.68,2.88,1.22,4.26.54,1.38,1.2,2.69,1.98,3.94.77,1.24,1.66,2.41,2.65,3.5h0c.99,1.08,2.06,2.05,3.2,2.91,1.13.85,2.34,1.58,3.63,2.2,1.26.61,2.57,1.06,3.92,1.36,1.35.3,2.77.45,4.26.45,1.12,0,2.23-.11,3.31-.32,1.09-.21,2.17-.53,3.21-.95,1.09-.44,2.14-.95,3.12-1.52.99-.58,1.94-1.24,2.84-1.96.89-.72,1.7-1.48,2.43-2.28.72-.79,1.36-1.61,1.9-2.45.52-.81.92-1.6,1.2-2.38.26-.72.42-1.45.48-2.18v-18.67c-.47-1.23-1.06-2.38-1.75-3.47-.75-1.18-1.64-2.29-2.66-3.33-1.04-1.06-2.16-2.01-3.35-2.85-1.17-.83-2.41-1.55-3.71-2.16-1.29-.6-2.6-1.04-3.92-1.34-1.31-.29-2.65-.44-4.03-.44m.31,74.63c-3.29,0-6.27-.32-8.93-.96-2.72-.65-5.07-1.64-7.04-2.95-1.91-1.27-3.63-2.75-5.15-4.42-1.52-1.67-2.81-3.53-3.88-5.56l-1.26-2.39,6.27-1.98.89,1.62c.97,1.77,2.13,3.29,3.46,4.57,1.32,1.27,2.81,2.29,4.47,3.07,1.72.8,3.52,1.41,5.39,1.83,1.86.41,3.79.61,5.77.61,1.79,0,3.51-.16,5.14-.48,1.63-.32,3.18-.8,4.65-1.43,1.43-.62,2.71-1.38,3.84-2.29,1.13-.91,2.13-1.97,2.97-3.17.82-1.17,1.44-2.49,1.86-3.95.43-1.49.64-3.14.64-4.93v-6.97c-.23.23-.47.45-.72.67-1.49,1.35-3.13,2.56-4.93,3.63-2.05,1.22-4.16,2.14-6.3,2.76h0c-2.17.62-4.36.93-6.55.93-1.99,0-3.94-.22-5.82-.65-1.87-.43-3.68-1.08-5.41-1.94h0c-1.68-.84-3.27-1.83-4.75-2.98-1.47-1.14-2.83-2.42-4.07-3.84h0c-1.22-1.39-2.31-2.89-3.27-4.48-.95-1.56-1.76-3.23-2.45-4.98-.68-1.74-1.19-3.52-1.53-5.32-.35-1.82-.52-3.64-.52-5.46s.16-3.75.48-5.6c.32-1.83.8-3.65,1.44-5.43.65-1.79,1.42-3.48,2.32-5.05.9-1.57,1.95-3.07,3.13-4.48,1.19-1.41,2.5-2.68,3.93-3.8,1.43-1.12,2.97-2.09,4.62-2.91,1.66-.82,3.43-1.44,5.27-1.86,1.84-.42,3.75-.63,5.7-.63,2.63,0,5.11.36,7.44,1.08,2.34.72,4.5,1.81,6.46,3.24,1.66,1.22,3.23,2.55,4.69,4,.28.27.55.55.82.83v-8.33h6.56v57.57c0,2.5-.31,4.84-.93,6.99-.63,2.18-1.57,4.14-2.82,5.87-1.23,1.7-2.65,3.19-4.27,4.45-1.61,1.26-3.42,2.3-5.39,3.11-1.93.79-3.92,1.38-5.97,1.78-2.05.4-4.16.6-6.29.6Z"/>
  <polygon class="cls-1" points="438.21 232.78 433.46 232.78 433.46 221.72 440.02 221.72 440.02 232.78 438.21 232.78"/>
  <path class="cls-1" d="m310.17,138.14c-2,0-3.96-.11-5.86-.33-1.9-.22-3.72-.54-5.46-.97-1.75-.43-3.45-.98-5.09-1.64-1.66-.67-3.26-1.45-4.76-2.33h0c-1.48-.87-2.96-1.86-4.42-2.99h0c-1.44-1.1-2.84-2.32-4.19-3.64l-1.75-1.71,5-4.32c.49.51.98,1.03,1.48,1.53.87.9,1.76,1.74,2.66,2.51.9.77,1.81,1.48,2.72,2.1.91.63,1.86,1.21,2.85,1.74h0c.98.53,1.98.99,3,1.4h0c1.03.41,2.09.77,3.17,1.07,1.08.3,2.21.55,3.36.74,1.14.19,2.34.34,3.59.43,1.23.1,2.5.15,3.81.15,3.41,0,6.47-.32,9.15-.96,2.63-.63,4.88-1.55,6.75-2.76,1.75-1.14,3.06-2.56,3.93-4.24.88-1.71,1.32-3.72,1.32-6.03,0-1.59-.18-3.01-.54-4.24-.35-1.2-.86-2.25-1.54-3.13h0c-.71-.91-1.63-1.76-2.77-2.54-1.18-.8-2.58-1.52-4.19-2.16-1.7-.66-3.68-1.3-5.9-1.9h0c-2.25-.61-4.74-1.18-7.46-1.71-2.7-.52-5.22-1.07-7.52-1.65-2.3-.58-4.43-1.2-6.36-1.85-2.05-.69-3.86-1.53-5.43-2.51-1.61-1-2.98-2.17-4.1-3.49-1.17-1.37-2.04-2.99-2.61-4.85-.56-1.81-.84-3.84-.84-6.06s.3-4.47.88-6.48c.59-2.03,1.48-3.87,2.66-5.52h0c1.17-1.63,2.59-3.07,4.25-4.31,1.64-1.22,3.51-2.25,5.61-3.07,2.04-.8,4.27-1.4,6.66-1.81,2.38-.4,4.9-.6,7.56-.6,1.57,0,3.12.08,4.64.24,1.49.15,2.93.39,4.29.69,1.39.32,2.73.73,4.01,1.23,1.28.5,2.51,1.1,3.69,1.79,1.17.69,2.31,1.5,3.42,2.42,1.1.91,2.16,1.94,3.19,3.07h0l1.38,1.53-4.39,4.73-1.65-1.8c-.66-.72-1.34-1.4-2.01-2.01-.66-.6-1.33-1.14-1.99-1.62-.65-.47-1.33-.9-2.01-1.27-.66-.36-1.35-.68-2.07-.95-.74-.28-1.49-.52-2.24-.72-.75-.2-1.55-.36-2.41-.49-.85-.13-1.74-.22-2.67-.29-.92-.06-1.91-.09-2.98-.09-3.9,0-7.26.37-10.05,1.1-2.68.71-4.83,1.74-6.43,3.11-1.58,1.35-2.78,2.94-3.57,4.74-.8,1.82-1.2,3.88-1.2,6.17,0,1.52.17,2.87.5,4.03.31,1.11.77,2.05,1.37,2.82.63.81,1.47,1.55,2.49,2.22,1.07.69,2.37,1.31,3.89,1.85,1.65.58,3.54,1.15,5.66,1.7,2.17.56,4.57,1.11,7.17,1.64,2.76.56,5.32,1.16,7.67,1.78,2.41.64,4.63,1.32,6.64,2.03,2.11.75,4.02,1.65,5.7,2.71,1.71,1.07,3.18,2.29,4.38,3.65,1.27,1.44,2.23,3.15,2.86,5.12.62,1.92.93,4.07.93,6.44,0,1.61-.17,3.16-.5,4.65-.33,1.5-.83,2.9-1.49,4.19-.66,1.3-1.48,2.51-2.46,3.61-.97,1.09-2.08,2.08-3.33,2.95-1.22.85-2.58,1.59-4.06,2.24-1.45.63-3.03,1.17-4.74,1.61-1.7.44-3.49.77-5.35.98-1.88.22-3.85.33-5.89.33"/>
  <path class="cls-1" d="m222.92,173.82l1.03-2.32,44.95,13.73-1.38,2.99c-1.88,4.06-4.2,7.95-6.97,11.63-2.76,3.68-5.93,7.13-9.5,10.34-3.57,3.21-7.49,6.09-11.72,8.62-4.22,2.53-8.74,4.7-13.54,6.5-4.81,1.81-9.95,3.17-15.37,4.08-5.42.91-11.12,1.37-17.05,1.37-3.27,0-6.49-.14-9.62-.41-3.1-.27-6.16-.68-9.15-1.24-2.97-.55-5.88-1.24-8.69-2.07-2.83-.83-5.57-1.8-8.2-2.9-2.63-1.1-5.18-2.31-7.64-3.64-2.46-1.32-4.82-2.76-7.08-4.3-2.25-1.53-4.42-3.19-6.5-4.96-2.05-1.75-4.03-3.62-5.91-5.62-3.73-3.94-7.04-8.17-9.91-12.64-2.88-4.49-5.34-9.26-7.36-14.27-2.01-5.01-3.53-10.18-4.55-15.47-1.02-5.3-1.53-10.72-1.53-16.22,0-3.75.22-7.46.65-11.11.43-3.63,1.09-7.19,1.95-10.65.86-3.46,1.95-6.86,3.26-10.19,1.31-3.33,2.83-6.57,4.56-9.71.49-.89.98-1.74,1.48-2.57-17.52,0-34.93-.08-52.38-.08v73.04h0c.09,2.26.44,4.2,1.06,5.8.58,1.51,1.39,2.71,2.43,3.59,1.12.95,2.4,1.67,3.82,2.15,1.45.49,3.07.73,4.85.73,1.94,0,3.87-.16,5.76-.48,1.91-.33,3.79-.81,5.62-1.45,2.01-.7,3.8-1.35,5.35-1.93,1.51-.57,2.89-1.11,4.11-1.62l3.07-1.28,9.55,37.5-2.31.95c-1.79.74-3.69,1.5-5.68,2.27-1.92.75-4.16,1.61-6.73,2.57-2.49.93-5.06,1.77-7.7,2.52-2.68.75-5.43,1.41-8.22,1.97-2.81.56-5.68.99-8.6,1.27-2.92.29-5.81.43-8.65.43-3.86,0-7.6-.34-11.21-1.03-3.61-.68-7.07-1.71-10.33-3.06-3.35-1.39-6.4-3.23-9.11-5.48-2.71-2.25-5.08-4.91-7.07-7.96-1.01-1.54-1.9-3.21-2.66-5.01-.76-1.78-1.39-3.67-1.89-5.66-.49-1.96-.86-4.04-1.11-6.24-.25-2.2-.37-4.49-.37-6.85v-86.75H0v-36.71h20.74V7.45h46.03v58.57h25.32c.31-.33.63-.66.97-1,.54-.54,1.07-1.05,1.61-1.53,1.73-1.58,3.73-3.16,5.97-4.73,2.23-1.56,4.67-3.08,7.29-4.55l6.33-3.43,5.54-2.99c1.7-.92,3.24-1.78,4.6-2.58,1.4-.83,2.68-1.61,3.81-2.36,1.04-.69,1.96-1.38,2.74-2.07.76-.67,1.38-1.33,1.87-1.99.41-.55.72-1.14.92-1.76.2-.63.3-1.32.3-2.08,0-.86-.11-1.67-.33-2.43-.22-.76-.56-1.49-1.01-2.19-.45-.7-1.01-1.34-1.67-1.93-.68-.6-1.45-1.12-2.31-1.56-.87-.45-1.87-.79-2.99-1.02-1.15-.23-2.45-.35-3.9-.35-1.2,0-2.34.07-3.41.22-1.09.15-2.12.36-3.1.65-.99.29-1.95.64-2.87,1.06-.92.41-1.8.88-2.64,1.41-.87.55-1.73,1.14-2.57,1.78-5.7,4.35-6.71,5.74-9.15,8.44l-17.46-20.17C92,7.44,107.42.56,123.61.03c10.95-.36,22.02,2.59,29.81,8.98,2.23,1.83,4.13,3.92,5.67,6.25,1.55,2.34,2.72,4.9,3.5,7.65.78,2.73,1.17,5.65,1.17,8.73,0,2.12-.2,4.16-.6,6.1-.4,1.96-1.01,3.79-1.81,5.48-.77,1.63-1.66,3.18-2.65,4.63-.99,1.45-2.09,2.81-3.29,4.06-1.16,1.2-2.37,2.35-3.64,3.43-1.26,1.08-2.58,2.09-3.95,3.04-1.35.93-2.66,1.8-3.92,2.59-2.93,1.83-5.65,3.21-8.7,4.84-1.31.7-2.74,1.48-4.3,2.33-4.05,2.22-7.96,4.62-11.23,7.92l25.56.15c4.34-2.83,7.52-4.24,12.34-6.19,3.52-1.43,7.19-2.62,11-3.57,3.79-.94,7.74-1.65,11.83-2.13,4.1-.47,8.34-.71,12.67-.71s8.56.24,12.66.72c4.09.48,8.03,1.2,11.79,2.15,3.76.95,7.41,2.16,10.91,3.61,3.49,1.45,6.84,3.14,10.01,5.06,3.17,1.92,6.14,4,8.9,6.21,2.78,2.23,5.36,4.61,7.71,7.12,2.37,2.53,4.55,5.22,6.52,8.05,1.96,2.81,3.73,5.8,5.3,8.94l1.52,3.04-44.79,13.68-1.15-1.96c-1.56-2.67-3.4-5.04-5.48-7.1-2.07-2.05-4.39-3.79-6.95-5.21-2.58-1.42-5.32-2.5-8.19-3.22-2.87-.72-5.9-1.08-9.06-1.08-3.55,0-6.94.45-10.17,1.33-3.23.89-6.32,2.22-9.23,3.99-2.9,1.76-5.51,3.91-7.83,6.43-2.31,2.52-4.31,5.41-5.98,8.65-1.69,3.26-2.96,6.82-3.81,10.64-.85,3.83-1.28,7.96-1.28,12.37s.44,8.34,1.32,12.13c.87,3.77,2.18,7.29,3.91,10.55,1.73,3.26,3.77,6.19,6.09,8.77,2.32,2.58,4.93,4.81,7.81,6.68,2.85,1.85,5.89,3.25,9.08,4.18,3.19.93,6.56,1.4,10.09,1.4,2.23,0,4.42-.19,6.53-.56,2.13-.37,4.18-.93,6.14-1.66,1.98-.73,3.88-1.62,5.69-2.66h0c1.79-1.03,3.48-2.19,5.05-3.48,1.53-1.26,2.86-2.61,3.98-4.05,1.11-1.42,2.03-2.94,2.74-4.52m-161.9,1.97v-78.82h1.8s11.08.03,17.9.04c.05-1.71.15-3.37.3-4.96.2-2.18.49-4.22.85-6.12.41-2.13.98-4.2,1.7-6.21.73-2.01,1.61-3.94,2.63-5.78.41-.74.85-1.46,1.32-2.18h-26.51s0-58.55,0-58.55H26.49v58.56H5.76v25.2h20.74v92.5c0,4.31.43,8.2,1.3,11.65.85,3.4,2.11,6.39,3.79,8.95,1.69,2.58,3.67,4.82,5.93,6.7,2.26,1.88,4.81,3.41,7.64,4.59,2.91,1.21,5.99,2.12,9.21,2.73,3.22.61,6.6.92,10.13.92,2.73,0,5.43-.13,8.08-.4,2.66-.26,5.34-.66,8.03-1.2,2.69-.54,5.3-1.16,7.79-1.86,2.53-.71,4.96-1.5,7.25-2.36,2.14-.8,4.19-1.58,6.13-2.34,1.26-.49,2.52-.99,3.79-1.5l-6.69-26.26c-.63.24-1.29.49-1.97.74-1.32.49-2.9,1.05-4.72,1.69-2.15.76-4.34,1.32-6.55,1.7-2.23.38-4.47.57-6.72.57-2.42,0-4.67-.35-6.74-1.06-2.09-.71-3.98-1.78-5.64-3.19-1.75-1.48-3.09-3.4-4.02-5.74-.89-2.24-1.39-4.89-1.5-7.92v-.07s0-.03,0-.03Zm25.72-83.2c-.13,1.43-.22,2.92-.27,4.46l36.48.02c1.03-1.41,2.11-2.81,3.26-4.18,1.34-1.61,2.73-3.15,4.16-4.6,1.51-1.54,3.11-3.04,4.77-4.47.34-.3,1.97-1.57,2.32-1.86l-29.24-.15c2.82-6.95,9.66-12.47,15.92-16.37,1.25-.78,2.59-1.56,4.01-2.34,1.14-.63,2.6-1.42,4.35-2.36,1.74-.93,3.37-1.8,4.88-2.59,1.11-.61,2.28-1.31,3.5-2.07,1.23-.77,2.47-1.58,3.69-2.43,1.19-.83,2.36-1.72,3.48-2.68,1.12-.96,2.2-1.97,3.22-3.04.98-1.02,1.88-2.13,2.7-3.33.82-1.2,1.55-2.48,2.2-3.84.61-1.3,1.08-2.71,1.39-4.21.31-1.51.47-3.16.47-4.91,0-2.55-.31-4.93-.94-7.13-.62-2.19-1.54-4.22-2.77-6.07-1.23-1.85-2.75-3.52-4.56-5-6.7-5.49-16.46-8.02-26.13-7.65-12.35.47-25.61,5.47-35.08,13.44l9.7,11.26c2.77-2.89,7.1-6.41,11.85-8.32,1.16-.52,2.37-.96,3.61-1.33,1.25-.37,2.56-.64,3.92-.83,1.38-.19,2.78-.28,4.19-.28,1.83,0,3.54.17,5.13.5,1.61.34,3.08.84,4.39,1.52,1.3.67,2.47,1.47,3.51,2.38,2.07,1.82,3.6,4.15,4.38,6.8.38,1.31.57,2.66.57,4.04s-.2,2.64-.6,3.87c-.4,1.22-.99,2.36-1.79,3.42-.72.96-1.59,1.9-2.6,2.8-.98.87-2.14,1.75-3.45,2.61-1.22.8-2.57,1.64-4.04,2.51-1.52.9-3.12,1.8-4.79,2.7l-5.57,3.01c-4.49,2.43-8.78,4.65-12.99,7.58-2.01,1.4-3.82,2.84-5.41,4.29-1.56,1.42-2.95,2.89-4.17,4.39-1.22,1.5-2.26,3.04-3.14,4.6-.88,1.58-1.63,3.23-2.25,4.94-.62,1.7-1.1,3.49-1.46,5.34-.34,1.77-.6,3.64-.78,5.58Zm149.65,121.29c3.9-2.34,7.52-5,10.83-7.98,3.14-2.82,5.93-5.83,8.37-9,1.99-2.6,3.74-5.32,5.25-8.14l-33.82-10.33c-.75,1.33-1.62,2.61-2.62,3.83-1.31,1.62-2.83,3.14-4.55,4.55-1.84,1.51-3.79,2.86-5.84,4.03-2.05,1.17-4.24,2.19-6.55,3.05-2.32.87-4.71,1.51-7.15,1.94-2.45.43-4.97.65-7.53.65-4.05,0-7.96-.55-11.7-1.64-3.73-1.09-7.28-2.72-10.6-4.87-3.31-2.15-6.3-4.7-8.94-7.63-2.65-2.94-4.96-6.26-6.91-9.93-.98-1.85-1.85-3.78-2.59-5.77h0c-.74-2.01-1.36-4.07-1.85-6.18-.48-2.1-.85-4.28-1.1-6.53-.25-2.26-.37-4.57-.37-6.9,0-4.79.48-9.35,1.44-13.65.96-4.31,2.39-8.31,4.3-12,1.91-3.71,4.21-7.02,6.87-9.92,2.66-2.9,5.69-5.38,9.07-7.44,3.37-2.04,6.94-3.59,10.68-4.62,3.75-1.03,7.66-1.55,11.69-1.55,3.62,0,7.12.42,10.47,1.26,6.56,1.64,12.59,4.9,17.46,9.61,2.05,1.98,3.89,4.2,5.51,6.65l33.93-10.36c-2.68-4.73-5.93-9.1-9.72-13.06-4.3-4.5-9.29-8.48-14.95-11.91-5.84-3.54-12.32-6.21-19.39-8-7.09-1.79-14.77-2.7-23-2.7s-15.96.89-23.1,2.67c-7.11,1.77-13.67,4.42-19.62,7.93-5.97,3.52-11.28,7.66-15.89,12.36-4.61,4.7-8.54,9.99-11.75,15.83-3.22,5.84-5.65,12.03-7.27,18.53-1.62,6.49-2.44,13.29-2.44,20.36,0,5.15.47,10.21,1.42,15.14.94,4.94,2.36,9.75,4.23,14.41,1.88,4.66,4.17,9.11,6.86,13.3,2.7,4.21,5.79,8.16,9.24,11.8,3.44,3.64,7.28,6.9,11.49,9.77,4.2,2.87,8.77,5.33,13.67,7.37,4.91,2.05,10.17,3.59,15.74,4.62,5.58,1.03,11.5,1.55,17.72,1.55,5.63,0,11-.43,16.07-1.28,5.07-.85,9.86-2.12,14.33-3.8,4.48-1.68,8.69-3.71,12.6-6.05Z"/>
  <path class="cls-1" d="m360.39,138.65c-.96,0-1.92-.11-2.86-.32-.93-.21-1.82-.53-2.68-.95h0c-.87-.43-1.66-.95-2.36-1.55-.71-.61-1.34-1.31-1.87-2.09-.56-.81-.98-1.7-1.26-2.64-.28-.94-.42-1.93-.42-2.97v-41.52h-7.67v-6.56h7.67v-18.5h6.56v18.5h12.78v6.56h-12.78v41.51c.05.64.2,1.19.43,1.64.51.99,1.63,1.7,2.65,2.04.56.19,1.17.28,1.82.28,1.06,0,2.01-.09,2.84-.25,2.58-.52,4.29-1.6,6.3-3.28l3.77,5.57-2.05,1.23c-1.63.98-3.35,1.85-5.15,2.45-.85.28-1.76.49-2.71.63-.96.14-1.97.21-3.01.21"/>
</svg>